# xmcd CD database file
#
# Track frame offsets:
#	150
#	1640
#	19145
#	38925
#	56822
#	76310
#	92212
#	113312
#	140725
#	155050
#	176200
#	198025
#	219025
#	297890
#
# Disc length: 4000 seconds
#
# Revision: 2
# Processed by: cddbd v1.4PL0 Copyright (c) Steve Scherf et al.
# Submitted via: CDex 1.50
#
DISCID=b50f9e0e
DTITLE=Canned Heat - Boogie Up The Country
DYEAR=1987
DGENRE=Blues
TTITLE0=Ansage
TTITLE1=Mercury Blues
TTITLE2=Take Me To The River
TTITLE3=Rollin' And Tumblin'
TTITLE4=A. Annie
TTITLE5=Bullfrog Blues
TTITLE6=Sweet Home Chicago
TTITLE7=Kidman Blues
TTITLE8=Going Up The Country
TTITLE9=Let's Work Together
TTITLE10=Trouble No More
TTITLE11=Younderswall
TTITLE12=Boogie
TTITLE13=Absage
EXTD=inak 8804 CD YEAR: 1987
EXTT0=
EXTT1=
EXTT2=
EXTT3=
EXTT4=
EXTT5=
EXTT6=
EXTT7=
EXTT8=
EXTT9=
EXTT10=
EXTT11=
EXTT12=
EXTT13=
PLAYORDER=
